<?xml version="1.0" encoding="utf-8"?><svg viewBox="0 0 211 66" xmlns="http://www.w3.org/2000/svg" xmlns:xlink="http://www.w3.org/1999/xlink"><style>:root>svg{display:none}:root>svg:target{display:block}</style><svg fill="none" viewBox="0 0 10 6" id="arrow-down" xmlns="http://www.w3.org/2000/svg"><path d="M1 1l4 4 4-4" stroke="#fff" stroke-width="1.5" stroke-linecap="round" stroke-linejoin="round"/></svg><svg viewBox="0 0 22 20" id="facebook" xmlns="http://www.w3.org/2000/svg"><path fill-rule="evenodd" clip-rule="evenodd" d="M21.407 10.058c0-5.311-4.598-9.617-10.268-9.617C5.47.44.872 4.747.872 10.058c0 4.8 3.754 8.778 8.663 9.5v-6.72H6.927v-2.78h2.608V7.939c0-2.41 1.533-3.742 3.878-3.742 1.124 0 2.299.188 2.299.188v2.367h-1.296c-1.274 0-1.673.741-1.673 1.503v1.803h2.847l-.454 2.78h-2.393v6.721c4.91-.722 8.664-4.7 8.664-9.501z"/></svg><svg viewBox="0 0 20 20" id="instagram" xmlns="http://www.w3.org/2000/svg"><path d="M14.076 2.032A4.237 4.237 0 0117 3.202a3.921 3.921 0 011.216 2.814v7.968A3.921 3.921 0 0117 16.798a4.236 4.236 0 01-2.924 1.17h-8.28a4.236 4.236 0 01-2.924-1.17 3.922 3.922 0 01-1.216-2.814V6.016a3.922 3.922 0 011.216-2.813 4.236 4.236 0 012.924-1.17h8.28zm0-1.593h-8.28C2.608.439 0 2.949 0 6.016v7.968c0 3.068 2.608 5.577 5.796 5.577h8.28c3.188 0 5.796-2.51 5.796-5.577V6.016c0-3.067-2.608-5.577-5.796-5.577z"/><path d="M15.318 6.017a1.27 1.27 0 01-.69-.202 1.206 1.206 0 01-.458-.536 1.154 1.154 0 01-.07-.69 1.18 1.18 0 01.34-.612c.173-.168.395-.281.635-.328.241-.046.491-.022.718.068.227.09.42.244.557.44a1.164 1.164 0 01-.153 1.51 1.24 1.24 0 01-.404.26c-.15.06-.312.09-.475.09zm-5.382.796c.655 0 1.295.187 1.84.537.545.35.97.848 1.22 1.43.25.583.316 1.224.188 1.842a3.152 3.152 0 01-.906 1.632 3.354 3.354 0 01-1.696.872 3.433 3.433 0 01-1.914-.18 3.289 3.289 0 01-1.486-1.175 3.102 3.102 0 01-.558-1.77c0-.846.35-1.656.97-2.253a3.383 3.383 0 012.342-.935zm0-1.593a5.1 5.1 0 00-2.76.806 4.825 4.825 0 00-1.83 2.145 4.613 4.613 0 00-.283 2.762c.192.928.665 1.78 1.36 2.448a5.031 5.031 0 002.544 1.308 5.15 5.15 0 002.87-.272 4.932 4.932 0 002.23-1.76 4.656 4.656 0 00.837-2.656 4.69 4.69 0 00-1.455-3.38A5.069 5.069 0 009.936 5.22z"/></svg><svg viewBox="0 0 20 20" id="linkedin" xmlns="http://www.w3.org/2000/svg"><path d="M18.442.291H2.235C1.35.291.576.928.576 1.803v16.242c0 .88.774 1.664 1.66 1.664h16.2c.891 0 1.558-.789 1.558-1.664V1.803C20 .928 19.327.291 18.442.291zM6.595 16.477H3.814v-8.65h2.781v8.65zM5.301 6.513h-.02c-.89 0-1.467-.663-1.467-1.493 0-.844.592-1.492 1.502-1.492s1.467.643 1.487 1.492c0 .83-.577 1.493-1.502 1.493zm11.461 9.964H13.98v-4.73c0-1.132-.404-1.906-1.41-1.906-.77 0-1.225.52-1.427 1.027-.076.182-.097.43-.097.683v4.926H8.265v-8.65h2.781v1.204c.405-.576 1.038-1.406 2.51-1.406 1.825 0 3.207 1.204 3.207 3.8v5.052z"/></svg><svg fill="none" viewBox="0 0 211 36" id="logo" xmlns="http://www.w3.org/2000/svg"><path d="M44.72 28c-.22 0-.4-.07-.54-.21a.731.731 0 01-.21-.54V11.17h-5.46c-.2 0-.37-.07-.51-.21a.694.694 0 01-.21-.51v-2.7c0-.22.07-.4.21-.54.14-.14.31-.21.51-.21h15.72c.22 0 .4.07.54.21.14.14.21.32.21.54v2.7c0 .2-.07.37-.21.51-.14.14-.32.21-.54.21H48.8v16.08c0 .22-.07.4-.21.54-.14.14-.32.21-.54.21h-3.33zm11.75 0c-.2 0-.37-.07-.51-.21a.731.731 0 01-.21-.54v-14.1c0-.2.07-.37.21-.51.14-.16.31-.24.51-.24h2.94c.2 0 .37.08.51.24.16.14.24.31.24.51v1.2c.5-.62 1.11-1.1 1.83-1.44.74-.34 1.59-.51 2.55-.51h1.29c.2 0 .37.07.51.21.14.14.21.32.21.54v2.58c0 .22-.07.4-.21.54-.14.14-.31.21-.51.21h-2.64c-.88 0-1.57.25-2.07.75-.5.48-.75 1.17-.75 2.07v7.95c0 .22-.07.4-.21.54-.14.14-.32.21-.54.21h-3.15zm16.643.3c-1.06 0-2.01-.2-2.85-.6-.84-.42-1.51-.98-2.01-1.68-.5-.7-.75-1.48-.75-2.34 0-1.42.57-2.54 1.71-3.36 1.16-.82 2.68-1.38 4.56-1.68l3.93-.57v-.54c0-.78-.18-1.38-.54-1.8-.36-.42-.99-.63-1.89-.63-.66 0-1.19.13-1.59.39-.4.26-.71.6-.93 1.02-.16.26-.39.39-.69.39h-2.85c-.22 0-.39-.06-.51-.18a.606.606 0 01-.15-.48c0-.34.13-.74.39-1.2.26-.46.66-.91 1.2-1.35.54-.46 1.23-.84 2.07-1.14.84-.3 1.87-.45 3.09-.45 1.26 0 2.34.15 3.24.45.9.3 1.62.72 2.16 1.26s.94 1.17 1.2 1.89c.26.7.39 1.46.39 2.28v9.27c0 .22-.07.4-.21.54-.14.14-.32.21-.54.21h-2.94c-.2 0-.37-.07-.51-.21a.731.731 0 01-.21-.54v-1.11c-.26.38-.61.74-1.05 1.08-.44.32-.97.58-1.59.78-.6.2-1.31.3-2.13.3zm1.2-3.12c.66 0 1.25-.14 1.77-.42.52-.28.93-.71 1.23-1.29.3-.58.45-1.31.45-2.19v-.51l-2.79.45c-1.08.18-1.87.45-2.37.81-.5.36-.75.8-.75 1.32 0 .38.11.71.33.99.24.28.55.49.93.63s.78.21 1.2.21zM86.645 28c-.2 0-.37-.07-.51-.21a.731.731 0 01-.21-.54v-14.1c0-.22.07-.4.21-.54.14-.14.31-.21.51-.21h2.94c.22 0 .4.07.54.21.14.14.21.32.21.54v1.17c.52-.64 1.19-1.17 2.01-1.59.82-.42 1.82-.63 3-.63s2.21.27 3.09.81c.9.52 1.6 1.29 2.1 2.31.52 1 .78 2.22.78 3.66v8.37c0 .22-.08.4-.24.54-.14.14-.31.21-.51.21h-3.18c-.22 0-.4-.07-.54-.21a.731.731 0 01-.21-.54v-8.19c0-1.06-.26-1.88-.78-2.46-.5-.6-1.24-.9-2.22-.9-.94 0-1.69.3-2.25.9-.56.58-.84 1.4-.84 2.46v8.19c0 .22-.07.4-.21.54-.14.14-.31.21-.51.21h-3.18zm24.415.3c-1.24 0-2.31-.14-3.21-.42-.88-.3-1.6-.66-2.16-1.08-.54-.42-.95-.84-1.23-1.26-.26-.44-.4-.81-.42-1.11-.02-.22.05-.4.21-.54.16-.14.32-.21.48-.21h2.91c.06 0 .12.01.18.03a.4.4 0 01.18.15c.26.18.53.39.81.63.28.22.6.41.96.57.38.16.85.24 1.41.24.66 0 1.22-.13 1.68-.39.46-.28.69-.67.69-1.17 0-.36-.11-.66-.33-.9-.2-.24-.59-.46-1.17-.66s-1.44-.42-2.58-.66c-1.08-.24-2-.56-2.76-.96-.76-.4-1.33-.9-1.71-1.5-.38-.62-.57-1.36-.57-2.22 0-.78.24-1.53.72-2.25.5-.72 1.23-1.31 2.19-1.77.96-.48 2.16-.72 3.6-.72 1.1 0 2.06.14 2.88.42.84.26 1.54.6 2.1 1.02.56.4.98.82 1.26 1.26.3.42.46.79.48 1.11.02.2-.04.37-.18.51a.66.66 0 01-.48.21h-2.67c-.1 0-.19-.01-.27-.03a.8.8 0 01-.21-.15c-.24-.16-.49-.34-.75-.54a3.45 3.45 0 00-.87-.57c-.34-.16-.78-.24-1.32-.24-.66 0-1.17.15-1.53.45-.34.28-.51.64-.51 1.08 0 .28.09.54.27.78.18.24.55.46 1.11.66s1.41.41 2.55.63c1.36.24 2.44.6 3.24 1.08.8.48 1.37 1.04 1.71 1.68.36.62.54 1.29.54 2.01 0 .94-.28 1.78-.84 2.52-.56.72-1.38 1.29-2.46 1.71-1.06.4-2.37.6-3.93.6zm10.829-.3c-.2 0-.37-.07-.51-.21a.731.731 0 01-.21-.54v-14.1c0-.22.07-.4.21-.54.14-.14.31-.21.51-.21h3c.22 0 .4.07.54.21.14.14.21.32.21.54v14.1c0 .22-.07.4-.21.54-.14.14-.32.21-.54.21h-3zm-.09-18c-.2 0-.37-.07-.51-.21a.731.731 0 01-.21-.54v-2.4c0-.22.07-.4.21-.54.14-.16.31-.24.51-.24h3.15c.22 0 .4.08.54.24.16.14.24.32.24.54v2.4c0 .22-.08.4-.24.54-.14.14-.32.21-.54.21h-3.15zm15.103 18c-1.24 0-2.3-.2-3.18-.6a4.348 4.348 0 01-2.01-1.92c-.44-.86-.66-1.94-.66-3.24v-6.3h-2.34c-.22 0-.4-.07-.54-.21a.731.731 0 01-.21-.54v-2.04c0-.22.07-.4.21-.54.14-.14.32-.21.54-.21h2.34V7.45c0-.22.07-.4.21-.54.16-.14.34-.21.54-.21h2.94c.22 0 .4.07.54.21.14.14.21.32.21.54v4.95h3.75c.2 0 .37.07.51.21.14.14.21.32.21.54v2.04c0 .22-.07.4-.21.54-.14.14-.31.21-.51.21h-3.75v5.94c0 .76.13 1.36.39 1.8.28.42.76.63 1.44.63h2.19c.2 0 .37.07.51.21.14.14.21.31.21.51v2.22c0 .22-.07.4-.21.54-.14.14-.31.21-.51.21h-2.61zm7.027 0c-.22 0-.4-.07-.54-.21a.731.731 0 01-.21-.54V7.75c0-.22.07-.4.21-.54.14-.14.32-.21.54-.21h13.38c.22 0 .4.07.54.21.14.14.21.32.21.54v2.55c0 .22-.07.4-.21.54-.14.14-.32.21-.54.21h-9.45v5.07h8.85c.22 0 .4.07.54.21.14.14.21.32.21.54v2.55c0 .2-.07.37-.21.51-.14.14-.32.21-.54.21h-8.85v7.11c0 .22-.07.4-.21.54-.14.14-.32.21-.54.21h-3.18zm17.951 0c-.22 0-.4-.07-.54-.21a.731.731 0 01-.21-.54V7.45c0-.22.07-.4.21-.54.14-.14.32-.21.54-.21h3c.2 0 .37.07.51.21.14.14.21.32.21.54v19.8c0 .22-.07.4-.21.54-.14.14-.31.21-.51.21h-3zm14.652.3c-1.66 0-3.05-.27-4.17-.81-1.12-.56-1.98-1.35-2.58-2.37-.58-1.02-.9-2.21-.96-3.57-.02-.4-.03-.85-.03-1.35 0-.52.01-.97.03-1.35.06-1.38.4-2.57 1.02-3.57.62-1.02 1.49-1.8 2.61-2.34 1.12-.56 2.48-.84 4.08-.84 1.58 0 2.93.28 4.05.84 1.12.54 1.99 1.32 2.61 2.34.62 1 .96 2.19 1.02 3.57.04.38.06.83.06 1.35 0 .5-.02.95-.06 1.35-.06 1.36-.39 2.55-.99 3.57-.58 1.02-1.43 1.81-2.55 2.37-1.12.54-2.5.81-4.14.81zm0-3.3c.98 0 1.72-.3 2.22-.9.5-.62.77-1.52.81-2.7.02-.3.03-.7.03-1.2s-.01-.9-.03-1.2c-.04-1.16-.31-2.05-.81-2.67-.5-.62-1.24-.93-2.22-.93-.98 0-1.73.31-2.25.93-.5.62-.77 1.51-.81 2.67-.02.3-.03.7-.03 1.2s.01.9.03 1.2c.04 1.18.31 2.08.81 2.7.52.6 1.27.9 2.25.9zm14.728 3c-.28 0-.5-.07-.66-.21-.14-.14-.25-.32-.33-.54l-4.29-13.89c-.04-.1-.06-.2-.06-.3 0-.18.06-.33.18-.45.14-.14.3-.21.48-.21h2.64c.26 0 .46.07.6.21.14.14.23.27.27.39l2.73 9.27 2.91-9.21c.04-.14.13-.28.27-.42.16-.16.38-.24.66-.24h1.71c.28 0 .49.08.63.24.16.14.26.28.3.42l2.91 9.21 2.73-9.27c.02-.12.1-.25.24-.39.16-.14.36-.21.6-.21h2.64c.18 0 .33.07.45.21.14.12.21.27.21.45 0 .1-.01.2-.03.3l-4.32 13.89c-.06.22-.17.4-.33.54-.14.14-.35.21-.63.21h-2.31c-.28 0-.5-.07-.66-.21-.16-.14-.28-.32-.36-.54l-2.91-8.88-2.97 8.88c-.06.22-.17.4-.33.54s-.38.21-.66.21h-2.31z" fill="#fff"/><path fill="#FFB82B" d="M0 7.891L8.472 3l4.892 8.472-8.473 4.891zM4.131 18h10v10h-10zm14-13h10v10h-10zm0 13h10v10h-10z"/></svg><svg viewBox="0 0 44 44" id="testimonials-arrow" xmlns="http://www.w3.org/2000/svg"><circle cx="21.768" cy="22.232" r="21.768"/><path d="M16 21.465h12m-5-5l5 5-5 5" stroke="#fff" stroke-width="1.5" stroke-linecap="round" stroke-linejoin="round"/></svg><svg fill="none" viewBox="0 0 44 44" id="testimonials-prev" xmlns="http://www.w3.org/2000/svg"><circle cx="21.768" cy="21.768" r="21.768" transform="matrix(-1 0 0 1 43.535 .465)" fill="url(#gpaint0_linear_1_4293)"/><path d="M28 21.465H16m5 5l-5-5 5-5" stroke="#091242" stroke-width="1.5" stroke-linecap="round" stroke-linejoin="round"/><defs><linearGradient id="gpaint0_linear_1_4293" x1="-1.234" y1="9.433" x2="53.533" y2="13.322" gradientUnits="userSpaceOnUse"><stop stop-color="#FFB629"/><stop offset=".507" stop-color="#FFDA56"/><stop offset="1" stop-color="#FFD7A6"/></linearGradient></defs></svg><svg fill="none" viewBox="0 0 30 28" id="testimonials-star" xmlns="http://www.w3.org/2000/svg"><path d="M14.049.927c.3-.921 1.603-.921 1.902 0l2.641 8.129a1 1 0 00.951.69h8.547c.969 0 1.372 1.24.588 1.81l-6.915 5.024a1 1 0 00-.363 1.118l2.641 8.128c.3.921-.755 1.688-1.538 1.118l-6.915-5.023a1 1 0 00-1.176 0l-6.914 5.023c-.784.57-1.839-.197-1.54-1.118L8.6 17.698a1 1 0 00-.363-1.119l-6.915-5.023c-.784-.57-.381-1.81.588-1.81h8.547a1 1 0 00.95-.69L14.05.927z" fill="#FDAF3B"/></svg><svg viewBox="0 0 20 16" id="twitter" xmlns="http://www.w3.org/2000/svg"><path d="M19.576 2.154a8.062 8.062 0 01-2.259.61 3.892 3.892 0 001.73-2.139 7.9 7.9 0 01-2.498.938A3.96 3.96 0 0013.678.338c-2.174 0-3.933 1.732-3.933 3.867-.001.297.033.593.102.882A11.217 11.217 0 011.74 1.044a3.817 3.817 0 00-.535 1.944c0 1.34.7 2.526 1.757 3.22a3.896 3.896 0 01-1.788-.483v.048c0 1.876 1.358 3.436 3.155 3.792-.338.09-.686.135-1.036.135-.248 0-.496-.023-.74-.072.5 1.537 1.954 2.654 3.677 2.686a7.975 7.975 0 01-5.824 1.6 11.136 11.136 0 006.02 1.748c7.243 0 11.2-5.894 11.2-11.006 0-.168-.004-.335-.012-.499a7.923 7.923 0 001.962-2.003z"/></svg><svg fill="none" viewBox="0 0 52 56" id="we-do-icon-1" xmlns="http://www.w3.org/2000/svg"><path d="M25.66 7.165V1m24.66 34.934c-3.75 13.101-21.115 17.673-24.198 18.393a1.875 1.875 0 01-.925 0C22.115 53.607 4.75 49.035 1 35.934v-8.786a2.055 2.055 0 011.413-1.952l22.605-7.552a2.183 2.183 0 011.284 0l22.605 7.552a2.055 2.055 0 011.413 1.952v8.785zM26.127 47.665c-2.439-.561-16.177-4.13-19.145-14.358" stroke="#1C1F35" stroke-width="2" stroke-linecap="round" stroke-linejoin="round"/><path d="M6.982 9.983v13.153l18.547-6.581 18.546 6.581V9.983a3 3 0 00-3-3H9.982a3 3 0 00-3 3z" fill="#FFD550" stroke="#1C1F35" stroke-width="2"/><path d="M25.66 37.99V17.543m5.254 19.353V28.52M11.769 17.752v-5.983m37.092 8.376V9.375" stroke="#1C1F35" stroke-width="2" stroke-linecap="round" stroke-linejoin="round"/></svg><svg fill="none" viewBox="0 0 57 46" id="we-do-icon-2" xmlns="http://www.w3.org/2000/svg"><path d="M2.334 45h52.38m-21.999 0V2.913c0-.507-.205-.994-.57-1.353A1.962 1.962 0 0030.769 1H7.422c-.516 0-1.01.202-1.376.56-.364.36-.57.846-.57 1.353V45" stroke="#141414" stroke-width="2" stroke-linecap="round" stroke-linejoin="round"/><path d="M32.715 13.572h15.857a3 3 0 013 3v27.38H32.715v-30.38z" fill="#FFD550" stroke="#141414" stroke-width="2" stroke-linecap="round" stroke-linejoin="round"/><path d="M13.857 10.428h7.334M1.286 40.81V26.143m54.477 4.19V15.667M35.857 9.38h7.334M17 26.143h7.333m-10.476 9.429h7.334m18.857 0h4.19m-4.19-9.429h4.19" stroke="#141414" stroke-width="2" stroke-linecap="round" stroke-linejoin="round"/></svg><svg fill="none" viewBox="0 0 76 66" id="we-do-icon-3" xmlns="http://www.w3.org/2000/svg"><path d="M17.305 55.435h35.87M34.333 40.477l15.522-9.345m-40.16 6.756l6.015 6.015M1 35.714l6.015 6.015m8.754-6.286l9.457 9.073a7.945 7.945 0 004.588 2.171 7.87 7.87 0 004.945-1.066l37.98-22.617-4.666-5.86a7.991 7.991 0 00-4.803-2.886 7.865 7.865 0 00-5.482 1.01l-11.138 6.71-15.052-5.14-4.14 1.824c-.309.136-.58.35-.788.621a2.104 2.104 0 00-.315 1.948c.112.327.302.618.552.85l7.701 7.093-7.024 4.112L20.56 30.2l-4.214 1.85a2.014 2.014 0 00-.783.614 2.106 2.106 0 00-.328 1.929c.106.324.29.616.534.85v0z" stroke="#1C1F35" stroke-width="2" stroke-linecap="round" stroke-linejoin="round"/><path d="M68.935 18.478c-6.03 4.736-11.982 5.331-16.304 0l3.396-2.207a9.65 9.65 0 0112.908 2.207z" fill="#FFD550" stroke="#1C1F35" stroke-width="2"/></svg><svg fill="none" viewBox="0 0 62 62" id="we-do-icon-4" xmlns="http://www.w3.org/2000/svg"><path d="M42.071 28.786V18.82h5.597a7 7 0 016.47 4.33l2.041 4.944a.5.5 0 01-.462.69H42.07z" fill="#FFD550" stroke="#1C1F35" stroke-width="2"/><path d="M4.429 35.428h37.643m3.321 17.715a6.643 6.643 0 100-13.286 6.643 6.643 0 000 13.286z" stroke="#1C1F35" stroke-width="2" stroke-linecap="round" stroke-linejoin="round"/><path d="M16.607 53.143a6.643 6.643 0 100-13.286 6.643 6.643 0 000 13.286z" fill="#FFD550" stroke="#1C1F35" stroke-width="2" stroke-linecap="round" stroke-linejoin="round"/><path d="M38.75 45.393h-15.5m-13.34 0h-3.6c-.498 0-.977-.205-1.33-.568a1.967 1.967 0 01-.551-1.37V16.33c0-.514.198-1.007.551-1.37a1.855 1.855 0 011.33-.567h35.762v25.962" stroke="#1C1F35" stroke-width="2" stroke-linecap="round" stroke-linejoin="round"/><path d="M42.071 28.786h15.5v14.762c0 .49-.204.959-.567 1.305s-.856.54-1.37.54h-3.737M8.857 28.095v-9.273M28.785 31h9.274m-9.273 18.715h3.321" stroke="#1C1F35" stroke-width="2" stroke-linecap="round" stroke-linejoin="round"/></svg><svg fill="none" viewBox="0 0 58 58" id="why-us-icon-1" xmlns="http://www.w3.org/2000/svg"><circle cx="29" cy="29" r="29" fill="url(#npaint0_linear_1_4414)"/><path d="M41 37.46V24.54a1.1 1.1 0 00-.139-.53 1.037 1.037 0 00-.373-.387l-11-6.486a.94.94 0 00-.976 0l-11 6.486a1.037 1.037 0 00-.373.386 1.1 1.1 0 00-.139.531v12.92a1.1 1.1 0 00.139.53c.09.162.219.295.373.387l11 6.486a.94.94 0 00.976 0l11-6.486c.154-.092.283-.225.373-.387a1.1 1.1 0 00.139-.53v0z" stroke="#141414" stroke-width="1.5" stroke-linecap="round" stroke-linejoin="round"/><path d="M35 34v-6.9L23 20" stroke="#141414" stroke-width="1.5" stroke-linecap="round" stroke-linejoin="round"/><path d="M41 24l-11.886 7L17 24m12 7v14" stroke="#141414" stroke-width="1.5" stroke-linecap="round" stroke-linejoin="round"/><defs><linearGradient id="npaint0_linear_1_4414" x1="-1.644" y1="12.567" x2="71.32" y2="17.748" gradientUnits="userSpaceOnUse"><stop stop-color="#FFB629"/><stop offset=".507" stop-color="#FFDA56"/><stop offset="1" stop-color="#FFD7A6"/></linearGradient></defs></svg><svg fill="none" viewBox="0 0 58 58" id="why-us-icon-2" xmlns="http://www.w3.org/2000/svg"><circle cx="29" cy="29" r="29" fill="url(#opaint0_linear_1_4422)"/><path d="M42.964 21H16.036c-.572 0-1.036.448-1.036 1v14c0 .552.464 1 1.036 1h26.928c.572 0 1.036-.448 1.036-1V22c0-.552-.464-1-1.036-1z" stroke="#1C1F35" stroke-width="1.5" stroke-linecap="round" stroke-linejoin="round"/><path d="M29.5 33a3.5 3.5 0 100-7 3.5 3.5 0 000 7zM36 21l8 7m-8 9l8-7m-21-9l-8 7m8 9l-8-7" stroke="#1C1F35" stroke-width="1.5" stroke-linecap="round" stroke-linejoin="round"/><defs><linearGradient id="opaint0_linear_1_4422" x1="-1.644" y1="12.567" x2="71.32" y2="17.748" gradientUnits="userSpaceOnUse"><stop stop-color="#FFB629"/><stop offset=".507" stop-color="#FFDA56"/><stop offset="1" stop-color="#FFD7A6"/></linearGradient></defs></svg></svg>